<?xml version="1.0" standalone="no"?>
<!DOCTYPE svg PUBLIC "-//W3C//DTD SVG 20010904//EN"
 "http://www.w3.org/TR/2001/REC-SVG-20010904/DTD/svg10.dtd">
<svg version="1.0" xmlns="http://www.w3.org/2000/svg"
 width="260.000000pt" height="260.000000pt" viewBox="0 0 260.000000 260.000000"
 preserveAspectRatio="xMidYMid meet">
<metadata>
Created by potrace 1.14, written by Peter Selinger 2001-2017
</metadata>
<g transform="translate(0.000000,260.000000) scale(0.100000,-0.100000)"
fill="#000000" stroke="none">
<path d="M1117 2249 c-102 -54 -181 -184 -181 -299 -1 -47 4 -74 17 -93 l18
-27 -62 -73 c-62 -73 -179 -261 -224 -359 -14 -30 -33 -85 -42 -123 -29 -117
3 -238 87 -329 22 -23 55 -51 75 -62 19 -10 35 -24 35 -30 0 -6 -20 -17 -45
-23 -90 -23 -152 -126 -126 -211 6 -21 25 -51 41 -67 28 -26 30 -32 30 -105 0
-54 -6 -94 -20 -130 -24 -63 -23 -58 -6 -58 8 0 16 7 20 15 3 8 10 15 17 15 6
0 9 -7 5 -15 -4 -13 8 -15 79 -15 l85 0 0 78 c0 91 17 129 45 101 10 -9 18
-39 21 -75 3 -32 7 -69 10 -81 l4 -23 385 0 384 0 3 43 3 42 20 -40 20 -40 93
-3 c50 -1 92 0 92 3 0 3 -13 29 -29 58 -31 56 -71 174 -71 212 0 12 7 28 16
36 26 22 54 86 54 126 -1 100 -111 213 -208 213 -9 0 -1 18 20 47 57 79 73
135 72 243 -2 143 -54 282 -162 435 -93 132 -199 233 -298 284 l-42 22 14 46
c33 110 -4 226 -86 268 -41 21 -117 18 -163 -6z m13 -64 c-7 -8 -19 -15 -26
-15 -8 0 -14 7 -14 15 0 10 10 15 26 15 22 0 25 -2 14 -15z m-60 -34 c0 -5
-18 -28 -41 -52 -27 -28 -38 -47 -33 -58 13 -31 16 -61 9 -88 -6 -27 -7 -28
-22 -8 -18 24 -12 99 12 144 24 48 75 89 75 62z m-20 -86 c0 -8 -4 -15 -9 -15
-13 0 -22 16 -14 24 11 11 23 6 23 -9z m310 -185 c8 -5 11 -10 6 -10 -5 0 -3
-6 3 -14 15 -18 2 -26 -26 -15 -25 9 -26 10 -17 33 7 18 13 19 34 6z m-11
-218 c19 -9 44 -29 55 -44 28 -39 9 -72 -53 -92 -61 -20 -258 -48 -345 -49
-65 -1 -70 1 -97 31 -39 44 -38 77 4 102 51 32 116 49 212 59 145 14 187 12
224 -7z m-541 -122 c-61 -127 -89 -216 -95 -302 -8 -108 13 -165 91 -240 32
-32 53 -58 47 -58 -6 0 -11 -7 -11 -15 0 -25 -16 -17 -73 35 -119 109 -136
253 -50 438 28 61 125 233 129 229 2 -1 -16 -40 -38 -87z m446 -312 c10 -39 7
-113 -6 -126 -7 -7 -22 -12 -35 -12 -22 0 -23 4 -23 70 0 64 2 72 23 80 32 13
34 12 41 -12z m-74 -63 c0 -41 -4 -75 -8 -75 -18 0 -40 37 -47 78 -8 47 5 72
36 72 17 0 19 -8 19 -75z m-278 -262 c27 -24 22 -33 -11 -22 -20 7 -28 15 -24
25 7 18 12 18 35 -3z m5 -151 c14 -19 44 -42 67 -52 22 -10 36 -19 30 -19 -18
-1 -74 20 -74 28 0 4 -12 13 -26 19 -14 7 -22 17 -19 22 3 6 1 10 -4 10 -6 0
-10 17 -10 38 1 27 3 30 6 12 3 -14 16 -40 30 -58z m-202 -81 c0 -38 -3 -64
-7 -57 -13 19 -8 126 6 126 0 0 1 -31 1 -69z m468 -18 c-7 -2 -21 -2 -30 0
-10 3 -4 5 12 5 17 0 24 -2 18 -5z m125 0 c-10 -2 -26 -2 -35 0 -10 3 -2 5 17
5 19 0 27 -2 18 -5z m-330 -120 c3 -17 -2 -23 -16 -23 -24 0 -46 25 -37 40 12
19 50 7 53 -17z m-193 -170 c-3 -21 -11 -42 -17 -48 -7 -7 -9 0 -4 24 3 18 6
40 6 47 0 8 5 14 11 14 8 0 9 -13 4 -37z"/>
</g>
</svg>
